<svg width="108" height="35" viewBox="0 0 108 35" fill="none" xmlns="http://www.w3.org/2000/svg">
<path d="M0 2.5H16.4851C20.9414 2.5 24.5541 6.17093 24.5541 10.6273C24.5541 15.0198 20.9933 18.638 16.6008 18.638M29 31.1411H28.1173C23.8934 31.1411 20.1249 28.4871 18.7019 24.51L16.6008 18.638M2.94916 33.5L2.94916 25.638C2.94915 21.772 6.08316 18.638 9.94915 18.638H16.6008" stroke="black" stroke-width="5"/>
<path d="M39 12.5L39 33.5" stroke="black" stroke-width="5"/>
<path d="M34 5.5C37.2252 4.12539 39.1872 4.20859 43 5.5" stroke="black" stroke-width="5"/>
<rect x="105" y="8.5" width="24" height="22" rx="11" transform="rotate(90 105 8.5)" stroke="black" stroke-width="5"/>
<path fill-rule="evenodd" clip-rule="evenodd" d="M63.0146 6C70.2012 6.00026 76.0281 11.8261 76.0283 19.0127V34H71.0283V19.0127C71.0281 14.5875 67.4398 11.0003 63.0146 11C58.5895 11.0002 55.0022 14.5875 55.002 19.0127V33.9541H50.002V19.0127C50.0022 11.8261 55.828 6.00025 63.0146 6Z" fill="black"/>
</svg>
